<?xml version="1.0" standalone="no"?><!DOCTYPE svg PUBLIC "-//W3C//DTD SVG 1.1//EN" "http://www.w3.org/Graphics/SVG/1.1/DTD/svg11.dtd"><svg t="1648547737714" class="icon" viewBox="0 0 1024 1024" version="1.1" xmlns="http://www.w3.org/2000/svg" p-id="5753" xmlns:xlink="http://www.w3.org/1999/xlink" width="200" height="200"><defs><style type="text/css">@font-face { font-family: feedback-iconfont; src: url("//at.alicdn.com/t/font_1031158_u69w8yhxdu.woff2?t=1630033759944") format("woff2"), url("//at.alicdn.com/t/font_1031158_u69w8yhxdu.woff?t=1630033759944") format("woff"), url("//at.alicdn.com/t/font_1031158_u69w8yhxdu.ttf?t=1630033759944") format("truetype"); }
</style></defs><path d="M490.7 400.1m-204.4 0a204.4 204.4 0 1 0 408.8 0 204.4 204.4 0 1 0-408.8 0Z" p-id="5754"></path><path d="M837.4 103.8H638.7c-22.1 0-40 17.9-40 40s17.9 40 40 40h43c59.9 52.9 97.7 130.3 97.7 216.3 0 159.3-129.3 288.6-288.6 288.6-79.7 0-151.9-32.5-204.2-84.9-12.7-12.8-33.5-12.6-46.2 0.1l-10.3 10.3c-12.7 12.7-12.9 33.5-0.2 46.2l0.2 0.2c33.8 33.8 73.3 60.4 117.2 79 38.9 16.4 79.8 25.9 121.9 28.4v81.5h-69.6c-22.1 0-40 17.9-40 40s17.9 40 40 40H626c22.1 0 40-17.9 40-40s-17.9-40-40-40h-76.9v-85.4c29.2-4.6 57.6-12.8 85.1-24.4 43.9-18.6 83.3-45.1 117.2-79s60.4-73.3 79-117.2c19.2-45.5 29-93.8 29-143.5s-9.8-98-29-143.5c-11-25.9-24.7-50.2-41.1-72.8h48.1c22.1 0 40-17.9 40-40 0-22-17.9-39.9-40-39.9z" p-id="5755"></path></svg>