<?xml version="1.0" standalone="no"?><!DOCTYPE svg PUBLIC "-//W3C//DTD SVG 1.1//EN" "http://www.w3.org/Graphics/SVG/1.1/DTD/svg11.dtd"><svg t="1648547414099" class="icon" viewBox="0 0 1024 1024" version="1.1" xmlns="http://www.w3.org/2000/svg" p-id="3789" xmlns:xlink="http://www.w3.org/1999/xlink" width="200" height="200"><defs><style type="text/css">@font-face { font-family: feedback-iconfont; src: url("//at.alicdn.com/t/font_1031158_u69w8yhxdu.woff2?t=1630033759944") format("woff2"), url("//at.alicdn.com/t/font_1031158_u69w8yhxdu.woff?t=1630033759944") format("woff"), url("//at.alicdn.com/t/font_1031158_u69w8yhxdu.ttf?t=1630033759944") format("truetype"); }
</style></defs><path d="M929 895H90.39a60.07 60.07 0 0 1-60-60V269.25a60.07 60.07 0 0 1 60-60h52.08a20 20 0 1 1 0 40H90.39a20 20 0 0 0-20 20V835a20 20 0 0 0 20 20H929a20 20 0 0 0 20-20V269.25a20 20 0 0 0-20-20H355.06a20 20 0 1 1 0-40H929a60.07 60.07 0 0 1 60 60V835a60.07 60.07 0 0 1-60 60z" p-id="3790"></path><path d="M289.9 898.63l-27.37-29.17c26.84-25.19 48-55.88 62.9-91.22l36.86 15.54c-17.08 40.53-41.44 75.8-72.39 104.85z m86.73-143.19l-37.55-13.77c16.36-44.63 31.65-81.46 46.74-112.6l36 17.44c-14.5 29.93-29.28 65.56-45.19 108.93z m63.08-143.32l-34.87-19.58c23.13-41.2 48.06-73.88 76.22-99.9L508.21 522c-25.04 23.16-47.45 52.63-68.5 90.12z m97.45-113.34l-22.78-32.88A323.39 323.39 0 0 1 586 428.8c13.61-5.1 26.91-10.57 39.52-16.25L642 449a722.45 722.45 0 0 1-41.89 17.22 283.88 283.88 0 0 0-62.95 32.56z m141.94-68l-18.88-35.26c38.49-20.62 68.89-43.19 90.34-67.08l29.77 26.72C755.76 382.54 721.7 408 679.1 430.8z m127.26-111.31l-34.77-19.77c10.06-17.7 15.16-36 15.16-54.37a104.36 104.36 0 0 0-0.6-11.14l39.77-4.3a145.49 145.49 0 0 1 0.83 15.44c0 25.4-6.86 50.34-20.39 74.14zM520.75 884.16l-36.41-16.57c3.46-7.59 6.66-15.52 9.52-23.59 36.2-101.71 66.78-166.2 102.26-215.65 40.63-56.64 89-94 152.09-117.72 121.19-45.42 194.2-108.87 200.29-174.05l39.83 3.73c-4.23 45.21-30 87.59-76.54 126-37.56 30.94-89.27 59.25-149.54 81.85-117 43.84-171.35 142.51-230.7 309.27-3.25 9.12-6.88 18.11-10.8 26.73zM247.61 321.07a49.44 49.44 0 0 1-46-31.46l-42.29-99.85-0.19-0.53c-1.33-3.71-8-22.92-8.43-36.11v-3.08a97 97 0 0 1 192.89-14 95.42 95.42 0 0 1 1 14c0 1.05 0 2.1-0.05 3.14a94.44 94.44 0 0 1-10.59 40.68l-40.31 95.73a49.44 49.44 0 0 1-46.03 31.48z m-51-145.86l42.15 99.55 0.16 0.41a9.36 9.36 0 0 0 17.4 0l0.31-0.77 41.11-97.65 0.42-0.79a54.75 54.75 0 0 0 6.39-24.11v-1.81a56.18 56.18 0 0 0-0.6-8.18c-4-27.35-28.26-48-56.36-48s-52.33 20.63-56.36 48a55.84 55.84 0 0 0-0.6 8.17v1.84c0.2 4.78 3.53 16.42 5.97 23.34z m51 0.5A25.67 25.67 0 1 1 273.34 150a25.73 25.73 0 0 1-25.73 25.71z" p-id="3791"></path></svg>