<?xml version="1.0" standalone="no"?><!DOCTYPE svg PUBLIC "-//W3C//DTD SVG 1.1//EN" "http://www.w3.org/Graphics/SVG/1.1/DTD/svg11.dtd"><svg t="1648547289105" class="icon" viewBox="0 0 1024 1024" version="1.1" xmlns="http://www.w3.org/2000/svg" p-id="2949" xmlns:xlink="http://www.w3.org/1999/xlink" width="200" height="200"><defs><style type="text/css">@font-face { font-family: feedback-iconfont; src: url("//at.alicdn.com/t/font_1031158_u69w8yhxdu.woff2?t=1630033759944") format("woff2"), url("//at.alicdn.com/t/font_1031158_u69w8yhxdu.woff?t=1630033759944") format("woff"), url("//at.alicdn.com/t/font_1031158_u69w8yhxdu.ttf?t=1630033759944") format("truetype"); }
</style></defs><path d="M192.170667 55.364267v415.1296h639.658666V55.364267H192.170667zM192.170667 1024H136.533333V0h750.933334v525.824H192.170667v442.811733h333.7216V1024H192.170667zM558.762667 68.266667v112.981333l-60.416 18.2272V115.473067h-31.197867v93.3888l-35.157333 10.581333 5.188266 29.627733 30.0032-9.216v150.4256c0 37.5808 19.182933 56.388267 57.582934 56.388267h114.005333c35.464533 0 56.388267-15.189333 62.805333-45.602133 3.447467-16.008533 7.0656-36.795733 10.786134-62.395734-11.4688-3.4816-22.528-7.338667-33.211734-11.605333-2.116267 22.664533-4.778667 42.530133-7.9872 59.5968-2.6624 19.729067-16.247467 29.5936-40.789333 29.5936h-97.9968c-22.664533 0-33.9968-10.376533-33.9968-31.197867v-154.965333l60.416-18.8416v163.84h31.163733v-173.397333l64.8192-20.241067a1463.637333 1463.637333 0 0 1-2.798933 82.807467c-0.546133 20.548267-7.748267 30.685867-21.6064 30.378666-9.352533 0-20.411733-0.785067-33.211733-2.389333 2.389333 12.288 4.4032 23.3472 6.007466 33.211733 11.741867 0.273067 23.722667 0.273067 36.010667 0 27.170133-0.273067 41.5744-18.397867 43.178667-54.408533 1.604267-33.314133 3.208533-76.253867 4.778666-128.785067l-97.1776 29.3888V68.266667h-31.197866zM307.2 388.266667l11.195733 30.788266c42.939733-16.247467 86.254933-32.256 130.013867-47.991466-1.365333-8.533333-2.286933-18.397867-2.798933-29.5936-17.2032 6.144-34.269867 12.117333-51.2 17.988266V209.851733h46.421333v-27.989333h-46.421333v-111.616h-29.5936v111.616H313.173333v27.989333h51.575467v159.607467c-19.319467 6.417067-38.5024 12.663467-57.582933 18.807467z" p-id="2950"></path></svg>