<?xml version="1.0" standalone="no"?><!DOCTYPE svg PUBLIC "-//W3C//DTD SVG 1.1//EN" "http://www.w3.org/Graphics/SVG/1.1/DTD/svg11.dtd"><svg t="1648540913717" class="icon" viewBox="0 0 1024 1024" version="1.1" xmlns="http://www.w3.org/2000/svg" p-id="2387" xmlns:xlink="http://www.w3.org/1999/xlink" width="200" height="200"><defs><style type="text/css">@font-face { font-family: feedback-iconfont; src: url("//at.alicdn.com/t/font_1031158_u69w8yhxdu.woff2?t=1630033759944") format("woff2"), url("//at.alicdn.com/t/font_1031158_u69w8yhxdu.woff?t=1630033759944") format("woff"), url("//at.alicdn.com/t/font_1031158_u69w8yhxdu.ttf?t=1630033759944") format("truetype"); }
</style></defs><path d="M486.293184 389.075097a86.528 86.528 0 1 0 39.770335-168.424166 86.528 86.528 0 1 0-39.770335 168.424166Z" p-id="2388"></path><path d="M508.416 0C274.944 0 86.528 189.44 86.528 423.936c0 117.248 47.104 223.232 123.904 300.032L508.416 1024l298.496-300.032c79.36-79.872 123.904-187.392 123.904-300.032C929.792 189.44 740.864 0 508.416 0z m-4.096 153.088c86.528 0 161.792 69.632 161.792 156.16v7.68c-1.024 22.016-4.608 33.28-13.312 53.76-2.048 5.632-12.288 22.528-12.288 22.528s-104.448 180.224-112.64 195.584c-5.12 9.728-15.872 13.312-23.04 13.312s-16.896-4.096-23.04-13.312c-10.752-16.896-105.472-193.536-106.496-195.584L363.52 371.2c-7.168-16.896-12.8-35.328-13.824-53.76v-7.68c0.512-86.528 68.608-156.672 154.624-156.672z m185.856 499.2c-48.64 10.752-113.152 16.896-181.76 16.896-68.608 0-133.12-5.632-181.76-16.896-57.344-12.8-88.576-30.72-84.992-53.76 2.56-15.872 12.8-24.064 37.888-33.28 20.992-7.68 62.464-17.408 95.744-23.04 7.68-1.536 13.824 3.584 15.36 11.264 1.536 7.68-4.096 13.312-11.776 14.848-28.672 4.608-68.096 13.312-84.992 19.968-18.944 7.68-16.896 9.728-16.896 10.752 0 1.024 0.512 5.632 13.312 11.776 12.288 5.632 30.208 11.264 51.712 15.872 46.08 9.728 107.008 14.848 170.496 14.848 64 0 124.416-5.12 170.496-14.848 21.504-4.608 39.424-10.24 51.712-15.872 12.8-6.144 10.24-10.24 10.752-11.776-0.512-1.536-2.56-3.584-20.992-11.264-16.896-6.656-53.248-15.36-81.408-19.968-7.68-1.536-13.312-6.656-11.776-14.336 1.536-7.68 8.192-13.312 15.872-11.776 33.28 5.12 70.144 15.872 91.648 23.04 25.088 8.704 35.328 16.896 37.888 33.28 2.56 23.552-29.184 41.472-86.528 54.272z" p-id="2389"></path></svg>