<?xml version="1.0" standalone="no"?><!DOCTYPE svg PUBLIC "-//W3C//DTD SVG 1.1//EN" "http://www.w3.org/Graphics/SVG/1.1/DTD/svg11.dtd"><svg t="1648106365331" class="icon" viewBox="0 0 1024 1024" version="1.1" xmlns="http://www.w3.org/2000/svg" p-id="1957" xmlns:xlink="http://www.w3.org/1999/xlink" width="200" height="200"><defs><style type="text/css">@font-face { font-family: feedback-iconfont; src: url("//at.alicdn.com/t/font_1031158_u69w8yhxdu.woff2?t=1630033759944") format("woff2"), url("//at.alicdn.com/t/font_1031158_u69w8yhxdu.woff?t=1630033759944") format("woff"), url("//at.alicdn.com/t/font_1031158_u69w8yhxdu.ttf?t=1630033759944") format("truetype"); }
</style></defs><path d="M979.363325 397.478424L622.193853 84.095735c-103.371915-94.838856-200.283086 0-200.283086 0L131.518577 331.335026c-218.495072 180.778951-108.199189 219.982262-66.777282 227.978958v345.028148c0 66.167778 62.242571 119.657868 138.966961 119.657868h184.752919V748.08963s-13.409093-31.645459 63.461579-31.645459h156.886386s36.619013-2.85248 36.619014 37.374799S648.768237 1023.97562 648.768237 1023.97562h178.121512c76.870672 0 138.966962-53.587611 138.966962-119.657868V539.517287c122.388447-15.310746 13.555374-142.038863 13.555374-142.038863zM909.3191 38.041596v221.371932l-210.376476-169.588453V32.336637c0-40.227278 43.3967-31.547938 43.3967-31.547939h120.121092c53.49009 0 46.858684 37.252898 46.858684 37.252898z" p-id="1958" fill="#1296db"></path></svg>